<svg width="213" height="61" viewBox="0 0 213 61" fill="none" xmlns="http://www.w3.org/2000/svg">
<circle cx="30.5" cy="30.5" r="30.5" fill="#1C2925"/>
<path d="M34.7908 14.5867H26.2069C25.2181 14.5867 24.3173 15.1493 23.8883 16.0337L19.4998 25.0818C18.9507 26.2133 19.7808 27.526 21.0463 27.526H26.9684C27.792 27.526 28.5427 27.0572 28.9009 26.3199L30.4989 23.0254L38.686 39.9027L27.6247 31.9499C27.185 31.6345 26.6574 31.464 26.1147 31.464H18.0177C17.0289 31.464 16.128 32.0266 15.699 32.911L10.3389 43.9686C9.78982 45.1001 10.6199 46.4128 11.8854 46.4128H17.8075C18.6311 46.4128 19.3818 45.944 19.74 45.2067L24.0921 36.2353L36.0821 45.2983C37.0387 46.0207 38.2055 46.4128 39.4067 46.4128H49.1145C50.38 46.4128 51.2101 45.1001 50.661 43.9686L37.1095 16.0337C36.6805 15.1493 35.7796 14.5867 34.7908 14.5867Z" fill="#D7FE51"/>
<g clip-path="url(#clip0_4278_2507)">
<path d="M189.555 17.4454C191.646 17.4454 193.34 15.7787 193.34 13.7227C193.34 11.6667 191.646 10 189.555 10C187.464 10 185.77 11.6667 185.77 13.7227C185.77 15.7787 187.464 17.4454 189.555 17.4454Z" fill="#1C2925"/>
<path d="M84.5348 11.2771L69 50.1681H75.8352L80.0251 39.5008H96.2106L100.352 50.1681H107.244L91.7094 11.2771H84.5348ZM87.9806 18.5H88.207L94.3264 34.1115H81.8584L87.9778 18.5H87.9806Z" fill="#1C2925"/>
<path d="M128.514 23.3885C126.386 22.0196 123.797 21.3323 120.745 21.3323C117.692 21.3323 115.33 21.9444 113.202 23.1659C111.075 24.3873 109.437 26.129 108.288 28.3883C107.139 30.6475 106.565 33.2406 106.565 36.1676C106.565 39.0946 107.139 41.7795 108.288 44.0025C109.437 46.2256 111.083 47.9478 113.231 49.1693C115.378 50.3907 117.882 51.0028 120.745 51.0028C123.079 51.0028 125.141 50.6216 126.929 49.8648C128.717 49.1053 130.177 48.0424 131.309 46.6708C132.438 45.3019 133.21 43.7271 133.626 41.9492H127.637C127.26 43.0593 126.488 44.0248 125.32 44.8372C124.151 45.6524 122.626 46.0587 120.745 46.0587C118.071 46.0587 116.017 45.1433 114.586 43.3097C113.48 41.8935 112.849 40.0489 112.687 37.7813H133.906C134.319 34.5594 134.056 31.6964 133.117 29.1979C132.174 26.6966 130.641 24.7629 128.514 23.3912V23.3885ZM113.627 30.5557C114.266 29.1117 115.18 28.0099 116.365 27.2503C117.551 26.4907 118.937 26.1123 120.518 26.1123C122.326 26.1123 123.831 26.5297 125.037 27.3616C126.242 28.1963 127.079 29.3064 127.552 30.6948C127.84 31.5462 127.973 32.4615 127.959 33.4437H112.837C112.976 32.392 113.239 31.4293 113.627 30.5557Z" fill="#1C2925"/>
<path d="M177.013 22.64C175.432 21.7692 173.548 21.3351 171.364 21.3351C168.914 21.3351 166.902 21.8721 165.318 22.9461C164.166 23.7279 163.227 24.7907 162.494 26.1235V11.2771H156.448V50.1681H162.494V36.3345C162.494 33.0764 163.162 30.6224 164.5 28.9725C165.836 27.3254 167.672 26.4991 170.009 26.4991C171.966 26.4991 173.435 27.0834 174.413 28.2491C175.392 29.4149 175.882 31.2039 175.882 33.6106V50.1653H181.928V32.3864C181.928 30.0521 181.503 28.0627 180.657 26.4156C179.809 24.7685 178.595 23.5081 177.013 22.6372V22.64Z" fill="#1C2925"/>
<path d="M192.605 22.167H186.559V50.1681H192.605V22.167Z" fill="#1C2925"/>
<path d="M203.848 22.167C201.814 22.167 200.252 22.704 199.16 23.7779C198.068 24.8519 197.522 26.3877 197.522 28.3882V50.1653H203.568V27.2781H213.003V22.167H203.851H203.848Z" fill="#1C2925"/>
<path d="M143.542 13.5001H137.496V43.9441C137.496 45.9445 138.042 47.4804 139.134 48.5543C140.226 49.6283 141.788 50.1653 143.822 50.1653H152.974V45.0542H143.539V27.2753H152.974V22.1642H143.539V13.5001H143.542Z" fill="#1C2925"/>
</g>
<defs>
<clipPath id="clip0_4278_2507">
<rect width="144" height="41" fill="white" transform="translate(69 10)"/>
</clipPath>
</defs>
</svg>
