<svg width="21" height="21" viewBox="0 0 21 21" fill="none" xmlns="http://www.w3.org/2000/svg">
<g id="Social Icons" clip-path="url(#clip0_4795_6743)">
<path id="Vector" d="M17.4308 3.69239C16.1561 3.10749 14.7892 2.67656 13.3599 2.42975C13.3339 2.42498 13.3079 2.43689 13.2945 2.4607C13.1187 2.77337 12.9239 3.18129 12.7876 3.50191C11.2503 3.27177 9.72099 3.27177 8.21527 3.50191C8.07887 3.17416 7.87707 2.77337 7.70048 2.4607C7.68707 2.43768 7.66107 2.42578 7.63504 2.42975C6.20659 2.67577 4.83963 3.1067 3.56411 3.69239C3.55307 3.69715 3.54361 3.70509 3.53732 3.7154C0.944493 7.58904 0.234208 11.3675 0.58265 15.099C0.584227 15.1173 0.594475 15.1348 0.608665 15.1459C2.31934 16.4021 3.97642 17.1648 5.60273 17.6703C5.62876 17.6783 5.65634 17.6688 5.6729 17.6473C6.05761 17.122 6.40054 16.568 6.69456 15.9855C6.71192 15.9514 6.69535 15.9109 6.65989 15.8974C6.11594 15.6911 5.598 15.4395 5.09977 15.1538C5.06037 15.1308 5.05721 15.0744 5.09346 15.0474C5.19831 14.9689 5.30318 14.8871 5.4033 14.8046C5.42141 14.7895 5.44665 14.7863 5.46794 14.7959C8.74107 16.2902 12.2846 16.2902 15.5191 14.7959C15.5404 14.7855 15.5657 14.7887 15.5846 14.8038C15.6847 14.8863 15.7895 14.9689 15.8952 15.0474C15.9314 15.0744 15.9291 15.1308 15.8897 15.1538C15.3914 15.445 14.8735 15.6911 14.3288 15.8966C14.2933 15.9101 14.2775 15.9514 14.2949 15.9855C14.5952 16.5672 14.9381 17.1212 15.3157 17.6465C15.3315 17.6688 15.3599 17.6783 15.3859 17.6703C17.0201 17.1648 18.6772 16.4021 20.3879 15.1459C20.4028 15.1348 20.4123 15.1181 20.4139 15.0998C20.8309 10.7857 19.7154 7.03828 17.4568 3.71619C17.4513 3.70509 17.4419 3.69715 17.4308 3.69239ZM7.18335 12.8269C6.19792 12.8269 5.38594 11.9222 5.38594 10.8111C5.38594 9.70005 6.18217 8.79535 7.18335 8.79535C8.19239 8.79535 8.99651 9.70799 8.98073 10.8111C8.98073 11.9222 8.18451 12.8269 7.18335 12.8269ZM13.829 12.8269C12.8435 12.8269 12.0316 11.9222 12.0316 10.8111C12.0316 9.70005 12.8278 8.79535 13.829 8.79535C14.838 8.79535 15.6421 9.70799 15.6264 10.8111C15.6264 11.9222 14.838 12.8269 13.829 12.8269Z" fill="#C8C8C8"/>
</g>
<defs>
<clipPath id="clip0_4795_6743">
<rect width="20" height="20" fill="white" transform="translate(0.5 0.229492)"/>
</clipPath>
</defs>
</svg>
