<svg width="21" height="19" viewBox="0 0 21 19" fill="none" xmlns="http://www.w3.org/2000/svg">
<path id="Vector" d="M8.92359 10.0396C9.90143 10.617 10.3903 10.9057 10.9273 10.9062C11.4642 10.9067 11.9536 10.6189 12.9325 10.0431L19.172 6.37337C19.4537 6.20771 19.6273 5.90063 19.6273 5.56819C19.6273 5.23576 19.4537 4.92868 19.172 4.76302L12.9302 1.0919C11.9525 0.516819 11.4636 0.229278 10.9271 0.229492C10.3907 0.229707 9.90205 0.517638 8.92471 1.0935L3.55886 4.25514C3.51908 4.27858 3.49921 4.29028 3.48067 4.30138C1.64774 5.39924 0.515295 7.40358 0.500153 9.57664C0.5 9.59861 0.5 9.62208 0.5 9.66905C0.5 9.71595 0.5 9.73939 0.500153 9.76133C0.515261 11.932 1.64518 13.9344 3.47484 15.0331C3.49333 15.0443 3.51318 15.056 3.5529 15.0794L6.91405 17.065C8.87259 18.2221 9.85184 18.8005 10.9272 18.8009C12.0026 18.8013 12.9823 18.2235 14.9416 17.0678L18.4897 14.975C19.4708 14.3963 19.9613 14.107 20.2307 13.63C20.5 13.153 20.5 12.5737 20.5 11.4151V9.17681C20.5 8.85537 20.3299 8.55916 20.0554 8.40274C19.7898 8.25141 19.4661 8.25365 19.2026 8.40866L11.927 12.6878C11.4389 12.9749 11.1948 13.1184 10.927 13.1185C10.6592 13.1186 10.415 12.9752 9.92668 12.6884L5.00243 9.79627C4.75577 9.6514 4.63243 9.57895 4.53336 9.56587C4.30752 9.53607 4.09036 9.6655 4.00433 9.88123C3.96661 9.97587 3.96736 10.1214 3.9689 10.4124C3.97002 10.6266 3.97058 10.7337 3.99015 10.8322C4.03399 11.0529 4.14743 11.2527 4.31308 11.4009C4.38705 11.4671 4.47771 11.5206 4.65905 11.6277L9.9239 14.7368C10.4135 15.0259 10.6583 15.1705 10.9271 15.1706C11.1959 15.1706 11.4407 15.0262 11.9305 14.7374L18.3836 10.9313C18.5509 10.8327 18.6345 10.7834 18.6972 10.8204C18.7599 10.8575 18.7599 10.9563 18.7599 11.1538V12.1691C18.7599 12.4587 18.7599 12.6035 18.6926 12.7228C18.6252 12.842 18.5026 12.9144 18.2573 13.0591L12.9348 16.1983C11.9549 16.7762 11.465 17.0652 10.9272 17.0649C10.3894 17.0647 9.89968 16.7753 8.92034 16.1964L3.94061 13.2532C3.9248 13.2438 3.9169 13.2391 3.90952 13.2347C2.8654 12.6105 2.22114 11.4684 2.2151 10.2311C2.21505 10.2223 2.21505 10.213 2.21505 10.1943V9.26237C2.21505 8.5793 2.57061 7.94797 3.14818 7.60543C3.65855 7.30273 4.28808 7.30212 4.79899 7.60387L8.92359 10.0396Z" fill="#C8C8C8"/>
</svg>
